<svg xmlns="http://www.w3.org/2000/svg" width="1005" height="600"><rect width="1005" height="600" x="0" y="0" fill="#FFFFFF" id="backgorund"/><g id="viz"><clipPath id="serieClipPath"><rect x="-50" y="-20" width="805" height="600"/></clipPath><g transform="translate(0,0)"><g transform="translate(50,20)" clip-path="url(#serieClipPath)"><g id="axis"><g transform="translate(0,560)" fill="none" font-size="10" font-family="sans-serif" text-anchor="middle"><path class="domain" stroke="currentColor" d="M0.5,6V0.5H735.5V6"/><g class="tick" opacity="1" transform="translate(0.5,0)"><line stroke="currentColor" y2="6"/><text fill="currentColor" y="9" dy="0.71em">Jan 03</text></g><g class="tick" opacity="1" transform="translate(57.03846153846154,0)"><line stroke="currentColor" y2="6"/><text fill="currentColor" y="9" dy="0.71em">Jan 10</text></g><g class="tick" opacity="1" transform="translate(113.57692307692308,0)"><line stroke="currentColor" y2="6"/><text fill="currentColor" y="9" dy="0.71em">Jan 17</text></g><g class="tick" opacity="1" transform="translate(170.1153846153846,0)"><line stroke="currentColor" y2="6"/><text fill="currentColor" y="9" dy="0.71em">Jan 24</text></g><g class="tick" opacity="1" transform="translate(226.65384615384616,0)"><line stroke="currentColor" y2="6"/><text fill="currentColor" y="9" dy="0.71em">Jan 31</text></g><g class="tick" opacity="1" transform="translate(283.19230769230774,0)"><line stroke="currentColor" y2="6"/><text fill="currentColor" y="9" dy="0.71em">Feb 07</text></g><g class="tick" opacity="1" transform="translate(339.7307692307692,0)"><line stroke="currentColor" y2="6"/><text fill="currentColor" y="9" dy="0.71em">Feb 14</text></g><g class="tick" opacity="1" transform="translate(396.2692307692308,0)"><line stroke="currentColor" y2="6"/><text fill="currentColor" y="9" dy="0.71em">Feb 21</text></g><g class="tick" opacity="1" transform="translate(452.8076923076923,0)"><line stroke="currentColor" y2="6"/><text fill="currentColor" y="9" dy="0.71em">Feb 28</text></g><g class="tick" opacity="1" transform="translate(509.3461538461538,0)"><line stroke="currentColor" y2="6"/><text fill="currentColor" y="9" dy="0.71em">Mar 06</text></g><g class="tick" opacity="1" transform="translate(565.8846153846155,0)"><line stroke="currentColor" y2="6"/><text fill="currentColor" y="9" dy="0.71em">Mar 13</text></g><g class="tick" opacity="1" transform="translate(622.4230769230769,0)"><line stroke="currentColor" y2="6"/><text fill="currentColor" y="9" dy="0.71em">Mar 20</text></g><g class="tick" opacity="1" transform="translate(678.9615384615385,0)"><line stroke="currentColor" y2="6"/><text fill="currentColor" y="9" dy="0.71em">Mar 27</text></g><g class="tick" opacity="1" transform="translate(735.5,0)"><line stroke="currentColor" y2="6"/><text fill="currentColor" y="9" dy="0.71em">Apr 03</text></g><text x="735" dy="-5" text-anchor="end" style="font-family: Arial, sans-serif; font-size: 12px; fill: rgb(123, 123, 123); font-weight: bold;">日期</text></g><g transform="translate(0,0)" fill="none" font-size="10" font-family="sans-serif" text-anchor="end"><path class="domain" stroke="currentColor" d="M0.5,560.5V0.5"/><g class="tick" opacity="1" transform="translate(0,560.5)"><line stroke="currentColor" x2="-6"/><text fill="currentColor" x="-9" dy="0.32em">29.8</text></g><g class="tick" opacity="1" transform="translate(0,513.8333333333336)"><line stroke="currentColor" x2="-6"/><text fill="currentColor" x="-9" dy="0.32em">30.0</text></g><g class="tick" opacity="1" transform="translate(0,467.1666666666671)"><line stroke="currentColor" x2="-6"/><text fill="currentColor" x="-9" dy="0.32em">30.2</text></g><g class="tick" opacity="1" transform="translate(0,420.5000000000006)"><line stroke="currentColor" x2="-6"/><text fill="currentColor" x="-9" dy="0.32em">30.4</text></g><g class="tick" opacity="1" transform="translate(0,373.83333333333337)"><line stroke="currentColor" x2="-6"/><text fill="currentColor" x="-9" dy="0.32em">30.6</text></g><g class="tick" opacity="1" transform="translate(0,327.16666666666686)"><line stroke="currentColor" x2="-6"/><text fill="currentColor" x="-9" dy="0.32em">30.8</text></g><g class="tick" opacity="1" transform="translate(0,280.5000000000004)"><line stroke="currentColor" x2="-6"/><text fill="currentColor" x="-9" dy="0.32em">31.0</text></g><g class="tick" opacity="1" transform="translate(0,233.83333333333394)"><line stroke="currentColor" x2="-6"/><text fill="currentColor" x="-9" dy="0.32em">31.2</text></g><g class="tick" opacity="1" transform="translate(0,187.16666666666748)"><line stroke="currentColor" x2="-6"/><text fill="currentColor" x="-9" dy="0.32em">31.4</text></g><g class="tick" opacity="1" transform="translate(0,140.5000000000002)"><line stroke="currentColor" x2="-6"/><text fill="currentColor" x="-9" dy="0.32em">31.6</text></g><g class="tick" opacity="1" transform="translate(0,93.83333333333374)"><line stroke="currentColor" x2="-6"/><text fill="currentColor" x="-9" dy="0.32em">31.8</text></g><g class="tick" opacity="1" transform="translate(0,47.16666666666731)"><line stroke="currentColor" x2="-6"/><text fill="currentColor" x="-9" dy="0.32em">32.0</text></g><g class="tick" opacity="1" transform="translate(0,0.5)"><line stroke="currentColor" x2="-6"/><text fill="currentColor" x="-9" dy="0.32em">32.2</text></g><text x="4" text-anchor="start" dominant-baseline="hanging" style="font-family: Arial, sans-serif; font-size: 12px; fill: rgb(123, 123, 123); font-weight: bold;">收盤價</text></g></g><g id="viz"><g><path d="M0,455.0000000000002C4.038461538461539,455.0000000000002,4.038461538461539,536.6666666666672,8.076923076923078,536.6666666666672C12.115384615384617,536.6666666666672,12.115384615384617,513.3333333333336,16.153846153846157,513.3333333333336C20.192307692307693,513.3333333333336,20.192307692307693,478.3333333333339,24.23076923076923,478.3333333333339C36.34615384615385,478.3333333333339,36.34615384615385,291.66666666666725,48.46153846153846,291.66666666666725C52.5,291.66666666666725,52.5,315.00000000000006,56.53846153846154,315.00000000000006C60.57692307692308,315.00000000000006,60.57692307692308,350.0000000000005,64.61538461538463,350.0000000000005C68.65384615384616,350.0000000000005,68.65384615384616,268.33333333333354,72.6923076923077,268.33333333333354C76.73076923076923,268.33333333333354,76.73076923076923,268.33333333333354,80.76923076923077,268.33333333333354C92.88461538461539,268.33333333333354,92.88461538461539,268.33333333333354,105,268.33333333333354C109.03846153846155,268.33333333333354,109.03846153846155,233.33333333333394,113.07692307692308,233.33333333333394C165.57692307692307,233.33333333333394,165.57692307692307,23.333333333333623,218.07692307692307,23.333333333333623C222.1153846153846,23.333333333333623,222.1153846153846,128.3333333333342,226.15384615384616,128.3333333333342C230.19230769230768,128.3333333333342,230.19230769230768,46.66666666666731,234.23076923076923,46.66666666666731C238.26923076923077,46.66666666666731,238.26923076923077,58.333333333334124,242.3076923076923,58.333333333334124C246.34615384615384,58.333333333334124,246.34615384615384,186.66666666666748,250.3846153846154,186.66666666666748C262.5,186.66666666666748,262.5,268.33333333333354,274.61538461538464,268.33333333333354C278.6538461538462,268.33333333333354,278.6538461538462,175.00000000000068,282.69230769230774,175.00000000000068C286.7307692307693,175.00000000000068,286.7307692307693,175.00000000000068,290.7692307692308,175.00000000000068C294.8076923076923,175.00000000000068,294.8076923076923,210.0000000000003,298.84615384615387,210.0000000000003C302.8846153846154,210.0000000000003,302.8846153846154,221.6666666666671,306.92307692307696,221.6666666666671C319.03846153846155,221.6666666666671,319.03846153846155,175.00000000000068,331.1538461538462,175.00000000000068C335.19230769230774,175.00000000000068,335.19230769230774,175.00000000000068,339.2307692307692,175.00000000000068C343.2692307692308,175.00000000000068,343.2692307692308,198.33333333333348,347.3076923076923,198.33333333333348C351.34615384615387,198.33333333333348,351.34615384615387,140.0000000000002,355.3846153846154,140.0000000000002C359.4230769230769,140.0000000000002,359.4230769230769,116.66666666666737,363.46153846153845,116.66666666666737C375.5769230769231,116.66666666666737,375.5769230769231,46.66666666666731,387.6923076923077,46.66666666666731C391.7307692307692,46.66666666666731,391.7307692307692,23.333333333333623,395.7692307692308,23.333333333333623C399.8076923076923,23.333333333333623,399.8076923076923,58.333333333334124,403.84615384615387,58.333333333334124C407.88461538461536,58.333333333334124,407.88461538461536,93.33333333333374,411.9230769230769,93.33333333333374C415.96153846153845,93.33333333333374,415.96153846153845,186.66666666666748,420,186.66666666666748C448.2692307692308,186.66666666666748,448.2692307692308,361.66666666666737,476.53846153846155,361.66666666666737C480.5769230769231,361.66666666666737,480.5769230769231,350.0000000000005,484.6153846153846,350.0000000000005C496.73076923076917,350.0000000000005,496.73076923076917,326.66666666666686,508.8461538461538,326.66666666666686C512.8846153846155,326.66666666666686,512.8846153846155,256.66666666666674,516.923076923077,256.66666666666674C520.9615384615386,256.66666666666674,520.9615384615386,233.33333333333394,525,233.33333333333394C529.0384615384615,233.33333333333394,529.0384615384615,338.3333333333337,533.0769230769231,338.3333333333337C537.1153846153846,338.3333333333337,537.1153846153846,373.33333333333337,541.1538461538462,373.33333333333337C553.2692307692308,373.33333333333337,553.2692307692308,280.0000000000004,565.3846153846155,280.0000000000004C569.4230769230769,280.0000000000004,569.4230769230769,350.0000000000005,573.4615384615385,350.0000000000005C577.5,350.0000000000005,577.5,350.0000000000005,581.5384615384615,350.0000000000005C585.5769230769231,350.0000000000005,585.5769230769231,373.33333333333337,589.6153846153846,373.33333333333337C593.6538461538462,373.33333333333337,593.6538461538462,175.00000000000068,597.6923076923077,175.00000000000068C609.8076923076924,175.00000000000068,609.8076923076924,233.33333333333394,621.9230769230769,233.33333333333394C625.9615384615385,233.33333333333394,625.9615384615385,233.33333333333394,630,233.33333333333394C634.0384615384615,233.33333333333394,634.0384615384615,233.33333333333394,638.0769230769231,233.33333333333394C642.1153846153846,233.33333333333394,642.1153846153846,221.6666666666671,646.1538461538462,221.6666666666671C650.1923076923076,221.6666666666671,650.1923076923076,256.66666666666674,654.2307692307692,256.66666666666674C666.3461538461538,256.66666666666674,666.3461538461538,303.33333333333405,678.4615384615385,303.33333333333405C682.5,303.33333333333405,682.5,315.00000000000006,686.5384615384615,315.00000000000006C690.5769230769231,315.00000000000006,690.5769230769231,280.0000000000004,694.6153846153846,280.0000000000004" stroke="#1f77b4" fill="none"/><text font-family="sans-serif" font-size="10" class="labels" x="218.07692307692307" y="23.333333333333623" dx="0" dy="-4" text-anchor="middle"/></g></g></g><text y="4" x="4" style="font-family: Arial, sans-serif; font-size: 12px; fill: black; font-weight: bold; dominant-baseline: hanging;"/></g><g id="grid"><rect x="0" y="0" width="805" height="600" fill="none" stroke="#ccc"/></g></g><g id="legend" transform="translate(805,20)"><g transform="translate(5,0)"/></g></svg>